Coordinates
version=1
nRows=14
nColumns=40
inDegrees=yes

Units are S.I. units (second, meters, Newtons, ...)
Angles are in degrees.

endheader
time	pelvis_tilt	pelvis_list	pelvis_rotation	pelvis_tx	pelvis_ty	pelvis_tz	hip_flexion_r	hip_adduction_r	hip_rotation_r	knee_angle_r	knee_angle_r_beta	ankle_angle_r	subtalar_angle_r	mtp_angle_r	hip_flexion_l	hip_adduction_l	hip_rotation_l	knee_angle_l	knee_angle_l_beta	ankle_angle_l	subtalar_angle_l	mtp_angle_l	lumbar_extension	lumbar_bending	lumbar_rotation	arm_flex_r	arm_add_r	arm_rot_r	elbow_flex_r	pro_sup_r	wrist_flex_r	wrist_dev_r	arm_flex_l	arm_add_l	arm_rot_l	elbow_flex_l	pro_sup_l	wrist_flex_l	wrist_dev_l
      2.28000000	     -4.32427237	     -6.14534969	      1.24932790	      0.93268245	      0.92920041	      0.55913211	     14.13060290	      3.94987661	    -19.41405681	     16.58206158	     16.58206158	      9.30433527	      1.23893748	     -3.89444179	     31.62788706	    -14.81102772	     -0.35220043	     66.44617703	     66.44617703	      9.37713356	    -16.72064076	      7.23469187	    -13.11293757	      5.97462337	      2.95503962	     18.00720985	    -18.82321588	      1.06377872	     45.93185790	     46.26345507	      0.00000000	      0.00000000	     -4.77783136	     -7.22007845	    -18.51621169	     96.77928823	     48.02116337	      0.00000000	      0.00000000
      2.29171429	     -4.40489772	     -6.21251977	      1.38848631	      0.93080791	      0.92970258	      0.55959310	     13.33648440	      4.14505006	    -19.81580699	     15.80478203	     15.80478203	      9.39738941	      2.02814404	     -4.11476602	     32.95879916	    -14.94237442	     -0.45756148	     64.80278715	     64.80278715	      9.44945753	    -17.09707763	      7.53059028	    -13.15293397	      6.12066022	      2.67708884	     20.43696608	    -18.56751989	      1.32263161	     46.79771216	     46.21298766	      0.00000000	      0.00000000	     -5.29469323	     -7.02752214	    -17.68770926	     93.02347222	     47.92631023	      0.00000000	      0.00000000
      2.30342857	     -4.48823903	     -6.29978674	      1.53963612	      0.92894882	      0.93015818	      0.56003879	     12.56779109	      4.41409773	    -19.92984949	     15.02782690	     15.02782690	      9.41873532	      2.31110152	     -4.21801713	     34.13870347	    -15.04111473	     -0.55017411	     62.90072470	     62.90072470	      9.47711868	    -17.41383319	      8.02347003	    -13.19717361	      6.30253643	      2.58996426	     22.65468411	    -18.54198802	      1.76902711	     47.85534652	     46.14519964	      0.00000000	      0.00000000	     -5.44972397	     -6.88245780	    -16.54680499	     88.90057207	     47.81092993	      0.00000000	      0.00000000
      2.31514286	     -4.50837274	     -6.35176995	      1.69192265	      0.92717075	      0.93060419	      0.56041757	     11.74249693	      4.64887858	    -20.00077217	     14.26495654	     14.26495654	      9.49188059	      2.55028353	     -4.19402177	     35.06778067	    -15.05021278	     -0.66044473	     60.73645239	     60.73645239	      9.45719067	    -17.70394282	      8.60834263	    -13.36594449	      6.40408930	      2.14860544	     24.96998674	    -18.12644812	      1.94393996	     49.16713453	     46.09433102	      0.00000000	      0.00000000	     -6.05386423	     -6.83879169	    -15.65830665	     85.76864114	     47.70554115	      0.00000000	      0.00000000
      2.32685714	     -4.59297266	     -6.44297256	      1.81864038	      0.92542274	      0.93085488	      0.56068565	     10.99269636	      4.90962982	    -20.14187220	     13.49555085	     13.49555085	      9.52244903	      2.90437463	     -4.28371055	     35.94784164	    -15.06585138	     -0.76062110	     58.38611216	     58.38611216	      9.54208386	    -17.78280916	      9.40844496	    -13.40762942	      6.61031621	      2.16942374	     27.03598305	    -18.11989684	      2.40266275	     50.23950419	     46.03391010	      0.00000000	      0.00000000	     -5.83638625	     -6.66392373	    -14.57865240	     81.13157200	     47.57296752	      0.00000000	      0.00000000
      2.33857143	     -4.68473097	     -6.47029042	      1.89705899	      0.92374223	      0.93097160	      0.56082930	     10.31782827	      5.06987676	    -20.23122829	     12.86886150	     12.86886150	      9.56205715	      3.23197428	     -4.52798853	     36.65514972	    -14.96031955	     -0.86913330	     55.78170802	     55.78170802	      9.71276973	    -17.76591484	     10.46911308	    -13.39077381	      6.72945816	      2.76094232	     28.57562675	    -18.64348868	      3.01377589	     51.60560566	     45.94250423	      0.00000000	      0.00000000	     -4.98350309	     -6.41146414	    -13.08574337	     75.76015347	     47.42608802	      0.00000000	      0.00000000
      2.35028571	     -4.77298091	     -6.52956648	      1.99043023	      0.92211531	      0.93096624	      0.56087433	      9.62458178	      5.26683197	    -20.32900788	     12.21026774	     12.21026774	      9.62667515	      3.56732590	     -4.66196006	     37.22239399	    -14.83410312	     -0.92192718	     52.91283547	     52.91283547	      9.68543074	    -17.66167440	     11.10661523	    -13.43566180	      6.85598980	      2.83894864	     30.26078074	    -18.66214218	      3.27180841	     53.24914395	     45.86185192	      0.00000000	      0.00000000	     -4.69353979	     -6.22476419	    -12.02742430	     71.25926671	     47.31612603	      0.00000000	      0.00000000
      2.36200000	     -4.87356377	     -6.59172423	      2.07464312	      0.92055034	      0.93083036	      0.56081681	      8.96937225	      5.44870183	    -20.45752208	     11.59921875	     11.59921875	      9.68756693	      3.90877652	     -4.77315271	     37.64567538	    -14.66151858	     -0.93210245	     49.78662671	     49.78662671	      9.53825350	    -17.43065792	     11.41731819	    -13.47105855	      6.96541052	      2.84646981	     31.92096509	    -18.51699364	      3.48369177	     54.83570761	     45.78948353	      0.00000000	      0.00000000	     -4.43848128	     -6.01792904	    -11.23903210	     66.73608686	     47.21903679	      0.00000000	      0.00000000
      2.37371429	     -4.94476296	     -6.60376614	      2.10149468	      0.91909929	      0.93059937	      0.56072490	      8.31352649	      5.57330125	    -20.41066071	     11.08462460	     11.08462460	      9.89379724	      4.16380736	     -4.83716412	     37.85368527	    -14.44037787	     -0.99363515	     46.42930987	     46.42930987	      9.42951964	    -16.99657300	     11.76178536	    -13.56119485	      6.95247630	      2.42277408	     33.75450122	    -17.87815704	      3.55340179	     56.29264593	     45.73996504	      0.00000000	      0.00000000	     -4.99307104	     -5.90865201	    -10.81006466	     64.07389871	     47.14919036	      0.00000000	      0.00000000
      2.38542857	     -5.13167193	     -6.74309172	      2.11774658	      0.91764069	      0.93006458	      0.56050355	      7.78767097	      5.79545110	    -20.59322142	     10.56908106	     10.56908106	      9.99080584	      4.67834443	     -5.07808698	     38.10032833	    -14.31457616	     -0.96654884	     42.91023369	     42.91023369	      8.99411545	    -16.37306175	     11.13248794	    -13.41984259	      7.15408116	      2.92124420	     34.95022964	    -18.26101376	      3.88268036	     58.11858584	     45.65384461	      0.00000000	      0.00000000	     -3.73937524	     -5.39412254	    -10.36372300	     57.49159819	     47.05610411	      0.00000000	      0.00000000
      2.39714286	     -5.27267049	     -6.82524440	      2.09333064	      0.91636143	      0.92952183	      0.56027358	      7.20399639	      5.96633408	    -20.62857162	     10.07304335	     10.07304335	     10.15476438	      5.08888649	     -5.21167537	     38.11935683	    -14.15931294	     -1.03606677	     39.24807610	     39.24807610	      8.61794949	    -15.42298590	     10.60298763	    -13.39039391	      7.21245730	      3.01006245	     36.15388097	    -18.11718132	      3.91651314	     60.18831779	     45.57500343	      0.00000000	      0.00000000	     -3.42403291	     -5.11305834	    -10.14870004	     53.00174110	     47.00257481	      0.00000000	      0.00000000
      2.40885714	     -5.39242219	     -6.92943615	      2.05528708	      0.91519688	      0.92885520	      0.56005099	      6.62864180	      6.15856623	    -20.58895584	      9.65846606	      9.65846606	     10.37823393	      5.35839365	     -5.29384546	     38.04191171	    -14.04450092	     -1.16592020	     35.63555281	     35.63555281	      8.59289333	    -14.10122419	     10.80764228	    -13.42172813	      7.23171722	      2.59562385	     37.64624304	    -17.34670478	      3.96596790	     61.76376245	     45.52317965	      0.00000000	      0.00000000	     -4.16865511	     -5.09597538	    -10.05382067	     50.68888887	     46.96331676	      0.00000000	      0.00000000
      2.42057143	     -5.67973906	     -7.22728524	      1.98247608	      0.91400655	      0.92771153	      0.55982844	      6.36192963	      6.50636760	    -20.57678419	      9.48493571	      9.48493571	     10.65337084	      5.51247442	     -5.44516390	     38.19311297	    -14.09402659	     -1.15598239	     32.23178248	     32.23178248	      8.56771568	    -12.69460815	     11.19123927	    -13.19171764	      7.46245711	      2.76294187	     39.01591144	    -17.20709199	      3.90789331	     62.68448663	     45.49959702	      0.00000000	      0.00000000	     -4.99668829	     -4.90061014	    -10.02384788	     49.40832661	     46.93873069	      0.00000000	      0.00000000
      2.43228571	     -5.68631792	     -7.26580155	      1.88359254	      0.91343345	      0.92719279	      0.55943662	      5.46101478	      6.64510762	    -20.68424526	      8.78502934	      8.78502934	     10.84125849	      6.33902746	     -5.54663154	     37.71054628	    -14.02322935	     -1.74014248	     28.72952636	     28.72952636	      8.34616710	    -10.86575364	     10.60203494	    -13.19442330	      7.45060401	      2.99280688	     39.51305473	    -17.18276620	      4.35900111	     65.73158458	     45.37736729	      0.00000000	      0.00000000	     -3.17111239	     -4.50407113	    -10.99057040	     41.06788550	     46.97778350	      0.00000000	      0.00000000
